<svg width="19" height="18" viewBox="0 0 19 18" fill="none" xmlns="http://www.w3.org/2000/svg">
<path d="M16.9404 13.0389C16.8643 13.2222 16.7187 13.3678 16.5354 13.4439C16.4453 13.4823 16.3485 13.5027 16.2504 13.5039H12.5004C12.3015 13.5039 12.1108 13.4249 11.9701 13.2842C11.8295 13.1436 11.7504 12.9528 11.7504 12.7539C11.7504 12.555 11.8295 12.3642 11.9701 12.2236C12.1108 12.0829 12.3015 12.0039 12.5004 12.0039H14.4429L10.2504 7.81141L7.78294 10.2864C7.71322 10.3567 7.63027 10.4125 7.53888 10.4506C7.44748 10.4887 7.34945 10.5083 7.25044 10.5083C7.15143 10.5083 7.0534 10.4887 6.96201 10.4506C6.87062 10.4125 6.78766 10.3567 6.71794 10.2864L2.21794 5.78641C2.14765 5.71668 2.09185 5.63373 2.05377 5.54234C2.0157 5.45094 1.99609 5.35291 1.99609 5.25391C1.99609 5.1549 2.0157 5.05687 2.05377 4.96547C2.09185 4.87408 2.14765 4.79113 2.21794 4.72141C2.28766 4.65111 2.37062 4.59531 2.46201 4.55724C2.5534 4.51916 2.65143 4.49956 2.75044 4.49956C2.84945 4.49956 2.94748 4.51916 3.03887 4.55724C3.13027 4.59531 3.21322 4.65111 3.28294 4.72141L7.25044 8.69641L9.71794 6.22141C9.78766 6.15111 9.87062 6.09531 9.96201 6.05724C10.0534 6.01916 10.1514 5.99956 10.2504 5.99956C10.3495 5.99956 10.4475 6.01916 10.5389 6.05724C10.6303 6.09531 10.7132 6.15111 10.7829 6.22141L15.5004 10.9464V9.00391C15.5004 8.80499 15.5795 8.61423 15.7201 8.47358C15.8608 8.33292 16.0515 8.25391 16.2504 8.25391C16.4494 8.25391 16.6401 8.33292 16.7808 8.47358C16.9214 8.61423 17.0004 8.80499 17.0004 9.00391V12.7539C16.9993 12.8519 16.9789 12.9487 16.9404 13.0389Z" fill="#FD7166"/>
</svg>
