<svg width="9" height="15" viewBox="0 0 9 15" fill="none" xmlns="http://www.w3.org/2000/svg">
<path d="M0.117188 7.1875C0.125 7.60156 0.273438 7.9375 0.609375 8.26562L6.49219 14.0078C6.74219 14.2578 7.03125 14.375 7.39062 14.375C8.10938 14.375 8.70312 13.7891 8.70312 13.0781C8.70312 12.7266 8.55469 12.3906 8.28125 12.1172L3.17969 7.19531L8.28125 2.25781C8.54688 1.99219 8.70312 1.65625 8.70312 1.29688C8.70312 0.585938 8.10938 0 7.39062 0C7.03906 0 6.74219 0.125 6.48438 0.367188L0.609375 6.10938C0.273438 6.45312 0.117188 6.78125 0.117188 7.1875Z" fill="#42444A"/>
</svg>
