<svg width="19" height="18" viewBox="0 0 19 18" fill="none" xmlns="http://www.w3.org/2000/svg">
<path d="M16.9404 4.965C16.8643 4.78174 16.7187 4.63611 16.5354 4.56C16.4453 4.52157 16.3485 4.50118 16.2504 4.5H12.5004C12.3015 4.5 12.1108 4.57902 11.9701 4.71967C11.8295 4.86032 11.7504 5.05109 11.7504 5.25C11.7504 5.44891 11.8295 5.63968 11.9701 5.78033C12.1108 5.92098 12.3015 6 12.5004 6H14.4429L10.2504 10.1925L7.78294 7.7175C7.71322 7.6472 7.63027 7.59141 7.53888 7.55333C7.44748 7.51526 7.34945 7.49565 7.25044 7.49565C7.15143 7.49565 7.0534 7.51526 6.96201 7.55333C6.87062 7.59141 6.78766 7.6472 6.71794 7.7175L2.21794 12.2175C2.14765 12.2872 2.09185 12.3702 2.05377 12.4616C2.0157 12.553 1.99609 12.651 1.99609 12.75C1.99609 12.849 2.0157 12.947 2.05377 13.0384C2.09185 13.1298 2.14765 13.2128 2.21794 13.2825C2.28766 13.3528 2.37062 13.4086 2.46201 13.4467C2.5534 13.4847 2.65143 13.5043 2.75044 13.5043C2.84945 13.5043 2.94748 13.4847 3.03887 13.4467C3.13027 13.4086 3.21322 13.3528 3.28294 13.2825L7.25044 9.3075L9.71794 11.7825C9.78766 11.8528 9.87062 11.9086 9.96201 11.9467C10.0534 11.9847 10.1514 12.0043 10.2504 12.0043C10.3495 12.0043 10.4475 11.9847 10.5389 11.9467C10.6303 11.9086 10.7132 11.8528 10.7829 11.7825L15.5004 7.0575V9C15.5004 9.19891 15.5795 9.38968 15.7201 9.53033C15.8608 9.67098 16.0515 9.75 16.2504 9.75C16.4494 9.75 16.6401 9.67098 16.7808 9.53033C16.9214 9.38968 17.0004 9.19891 17.0004 9V5.25C16.9993 5.15199 16.9789 5.05517 16.9404 4.965Z" fill="#00B14F"/>
</svg>
