<svg width="16" height="16" viewBox="0 0 16 16" fill="none" xmlns="http://www.w3.org/2000/svg">
<path d="M9.1909 11.5717C9.34877 11.5717 9.50017 11.509 9.6118 11.3974C9.72342 11.2857 9.78614 11.1343 9.78614 10.9765V9.78598C9.78614 9.62811 9.72342 9.47671 9.6118 9.36508C9.50017 9.25346 9.34877 9.19074 9.1909 9.19074C9.03303 9.19074 8.88163 9.25346 8.77 9.36508C8.65837 9.47671 8.59566 9.62811 8.59566 9.78598V10.9765C8.59566 11.1343 8.65837 11.2857 8.77 11.3974C8.88163 11.509 9.03303 11.5717 9.1909 11.5717ZM6.80995 11.5717C6.96781 11.5717 7.11922 11.509 7.23084 11.3974C7.34247 11.2857 7.40519 11.1343 7.40519 10.9765V9.78598C7.40519 9.62811 7.34247 9.47671 7.23084 9.36508C7.11922 9.25346 6.96781 9.19074 6.80995 9.19074C6.65208 9.19074 6.50068 9.25346 6.38905 9.36508C6.27742 9.47671 6.21471 9.62811 6.21471 9.78598V10.9765C6.21471 11.1343 6.27742 11.2857 6.38905 11.3974C6.50068 11.509 6.65208 11.5717 6.80995 11.5717ZM12.1671 4.42884H11.3457L10.3159 2.37527C10.2844 2.2997 10.2377 2.23144 10.1787 2.17475C10.1196 2.11805 10.0495 2.07415 9.97276 2.04577C9.89599 2.01739 9.81418 2.00515 9.73246 2.00982C9.65074 2.01449 9.57086 2.03596 9.49782 2.07289C9.42477 2.10982 9.36013 2.16143 9.30792 2.22447C9.25572 2.28752 9.21708 2.36066 9.19442 2.43931C9.17177 2.51796 9.16557 2.60045 9.17623 2.6816C9.18689 2.76276 9.21417 2.84085 9.25638 2.91098L10.0123 4.42884H5.98852L6.74447 2.91098C6.80225 2.77223 6.8054 2.61677 6.75329 2.47579C6.70119 2.33482 6.59768 2.21878 6.46356 2.15096C6.32943 2.08314 6.17462 2.06858 6.03019 2.11018C5.88577 2.15179 5.76244 2.24649 5.68495 2.37527L4.65518 4.42884H3.83376C3.41304 4.43524 3.00809 4.59 2.69033 4.86582C2.37258 5.14165 2.16243 5.52082 2.09695 5.93646C2.03147 6.35211 2.11487 6.77752 2.33244 7.13768C2.55 7.49783 2.88776 7.76959 3.28614 7.90503L3.72661 12.3455C3.77103 12.7875 3.9786 13.1971 4.3088 13.4943C4.63899 13.7914 5.0681 13.9549 5.51233 13.9526H10.5004C10.9446 13.9549 11.3738 13.7914 11.704 13.4943C12.0341 13.1971 12.2417 12.7875 12.2861 12.3455L12.7266 7.90503C13.1259 7.76919 13.4641 7.49644 13.6816 7.13508C13.899 6.77372 13.9815 6.34707 13.9145 5.93071C13.8474 5.51435 13.6352 5.13514 13.3154 4.86025C12.9956 4.58536 12.5888 4.43254 12.1671 4.42884ZM11.0897 12.2265C11.0749 12.3738 11.0057 12.5103 10.8956 12.6094C10.7856 12.7084 10.6425 12.7629 10.4945 12.7622H5.50638C5.3583 12.7629 5.21526 12.7084 5.1052 12.6094C4.99513 12.5103 4.92594 12.3738 4.91114 12.2265L4.48852 8.00027H11.5123L11.0897 12.2265ZM12.1671 6.80979H3.83376C3.67589 6.80979 3.52449 6.74708 3.41286 6.63545C3.30123 6.52382 3.23852 6.37242 3.23852 6.21455C3.23852 6.05669 3.30123 5.90528 3.41286 5.79366C3.52449 5.68203 3.67589 5.61931 3.83376 5.61931H12.1671C12.325 5.61931 12.4764 5.68203 12.588 5.79366C12.6996 5.90528 12.7623 6.05669 12.7623 6.21455C12.7623 6.37242 12.6996 6.52382 12.588 6.63545C12.4764 6.74708 12.325 6.80979 12.1671 6.80979Z" fill="#7781A3"/>
</svg>
