<svg width="13" height="13" viewBox="0 0 13 13" fill="none" xmlns="http://www.w3.org/2000/svg">
<path d="M6.17802 0.286255C5.01252 0.286255 3.8732 0.631865 2.90412 1.27938C1.93504 1.9269 1.17974 2.84723 0.733726 3.92401C0.28771 5.00079 0.171011 6.18565 0.398388 7.32875C0.625766 8.47186 1.18701 9.52186 2.01114 10.346C2.83527 11.1701 3.88527 11.7314 5.02838 11.9587C6.17148 12.1861 7.35634 12.0694 8.43312 11.6234C9.50989 11.1774 10.4302 10.4221 11.0777 9.45301C11.7253 8.48393 12.0709 7.34461 12.0709 6.17911C12.0709 4.61623 11.45 3.11736 10.3449 2.01223C9.23977 0.907108 7.7409 0.286255 6.17802 0.286255ZM6.17802 11.0005C5.22443 11.0005 4.29225 10.7178 3.49937 10.188C2.70649 9.6582 2.08852 8.90519 1.7236 8.02419C1.35867 7.14319 1.26319 6.17376 1.44923 5.2385C1.63527 4.30323 2.09446 3.44414 2.76875 2.76985C3.44304 2.09556 4.30214 1.63636 5.2374 1.45033C6.17267 1.26429 7.1421 1.35977 8.0231 1.72469C8.9041 2.08962 9.6571 2.70759 10.1869 3.50047C10.7167 4.29335 10.9994 5.22552 10.9994 6.17911C10.9994 7.45784 10.4915 8.68418 9.58728 9.58838C8.68309 10.4926 7.45674 11.0005 6.17802 11.0005Z" fill="#C78C19"/>
<path d="M3.58217 7.75719C3.33939 7.75719 3.14258 7.56037 3.14258 7.31759V4.57195C3.14258 4.17746 3.46237 3.85767 3.85686 3.85767H4.54808C4.8232 3.85767 5.0744 3.89554 5.30167 3.9713C5.52894 4.04307 5.71036 4.16668 5.84593 4.34212C5.98149 4.51755 6.04928 4.76078 6.04928 5.07178C6.04928 5.35886 5.98548 5.5961 5.85789 5.7835C5.73428 5.96692 5.56682 6.10448 5.3555 6.19618L5.88008 7.12129C6.04105 7.40517 5.83599 7.75719 5.50965 7.75719C5.35221 7.75719 5.20762 7.67032 5.13368 7.53133L4.50621 6.35169H4.02176V7.31759C4.02176 7.56037 3.82495 7.75719 3.58217 7.75719ZM4.02176 5.65192H4.47631C4.70757 5.65192 4.88301 5.60408 5.00263 5.50838C5.12623 5.4087 5.18803 5.26317 5.18803 5.07178C5.18803 4.88039 5.12623 4.74682 5.00263 4.67106C4.88301 4.59531 4.70757 4.55743 4.47631 4.55743H4.02176V5.65192Z" fill="#C78C19"/>
<path d="M7.17835 8.85767C6.93557 8.85767 6.73876 8.66085 6.73876 8.41807V5.18578C6.73876 4.96757 6.91565 4.79068 7.13385 4.79068H7.15736C7.33143 4.79068 7.48146 4.91319 7.51627 5.08374H7.54019C7.65582 4.98007 7.78541 4.89435 7.92895 4.82657C8.07648 4.7548 8.22799 4.71891 8.38349 4.71891C8.74235 4.71891 9.02544 4.85647 9.23278 5.13159C9.44011 5.40272 9.54378 5.76755 9.54378 6.22609C9.54378 6.565 9.48397 6.85408 9.36436 7.09331C9.24474 7.33255 9.08924 7.51596 8.89785 7.64355C8.71045 7.76716 8.50909 7.82896 8.29378 7.82896C8.16619 7.82896 8.04259 7.80304 7.92297 7.75121C7.80335 7.69539 7.69171 7.61763 7.58804 7.51795L7.61794 7.99044V8.41807C7.61794 8.66085 7.42113 8.85767 7.17835 8.85767ZM8.09043 7.11125C8.24195 7.11125 8.37153 7.04148 8.47919 6.90192C8.58684 6.76237 8.64067 6.54108 8.64067 6.23805C8.64067 5.70376 8.46922 5.43661 8.12632 5.43661C7.95487 5.43661 7.78541 5.52633 7.61794 5.70575V6.91987C7.69769 6.99164 7.77743 7.04148 7.85718 7.06939C7.93692 7.0973 8.01467 7.11125 8.09043 7.11125Z" fill="#C78C19"/>
</svg>
