<svg width="14" height="14" viewBox="0 0 14 14" fill="none" xmlns="http://www.w3.org/2000/svg">
<g clip-path="url(#clip0_2058_7114)">
<path fill-rule="evenodd" clip-rule="evenodd" d="M10.0593 1.28583H2.55929C2.13305 1.28583 1.72427 1.45515 1.42287 1.75655C1.12147 2.05795 0.952148 2.46673 0.952148 2.89297V10.393C0.952148 10.8192 1.12147 11.228 1.42287 11.5294C1.72427 11.8308 2.13305 12.0001 2.55929 12.0001H5.05929C5.35516 12.0001 5.59501 11.7603 5.59501 11.4644C5.59501 11.1685 5.35516 10.9287 5.05929 10.9287H2.55929C2.41721 10.9287 2.28095 10.8722 2.18048 10.7718C2.08002 10.6713 2.02358 10.5351 2.02358 10.393V2.89297C2.02358 2.75089 2.08002 2.61463 2.18048 2.51416C2.28095 2.4137 2.41721 2.35726 2.55929 2.35726H4.16643V5.03583C4.167 5.12932 4.19202 5.22103 4.23901 5.30186C4.286 5.38268 4.35332 5.4498 4.43429 5.49654C4.51573 5.54356 4.60811 5.56831 4.70215 5.56831C4.79619 5.56831 4.88857 5.54356 4.97001 5.49654L6.30929 4.7519L7.65393 5.5019C7.734 5.54728 7.8244 5.57126 7.91643 5.57154C8.05851 5.57154 8.19478 5.5151 8.29524 5.41463C8.39571 5.31417 8.45215 5.17791 8.45215 5.03583V2.35726H10.0593C10.2014 2.35726 10.3376 2.4137 10.4381 2.51416C10.5386 2.61463 10.595 2.75089 10.595 2.89297V5.39297C10.595 5.68884 10.8349 5.92868 11.1307 5.92868C11.4266 5.92868 11.6664 5.68884 11.6664 5.39297V2.89297C11.6664 2.46673 11.4971 2.05795 11.1957 1.75655C10.8943 1.45515 10.4855 1.28583 10.0593 1.28583ZM7.38072 2.35726V4.11976L6.57179 3.66976C6.49035 3.62274 6.39797 3.59798 6.30393 3.59798C6.2099 3.59798 6.11752 3.62274 6.03608 3.66976L5.23786 4.11976V2.35726H7.38072Z" fill="#FD7166"/>
<path d="M10.188 9.53594L11.4666 8.25737C11.5414 8.19333 11.6021 8.11453 11.645 8.02592C11.6878 7.9373 11.7119 7.84078 11.7157 7.7424C11.7195 7.64403 11.7029 7.54594 11.667 7.45428C11.6311 7.36262 11.5767 7.27937 11.507 7.20976C11.4374 7.14015 11.3542 7.08568 11.2625 7.04977C11.1709 7.01386 11.0728 6.99728 10.9744 7.00108C10.876 7.00488 10.7795 7.02897 10.6909 7.07185C10.6023 7.11472 10.5235 7.17545 10.4594 7.25022L9.18087 8.52879L7.89515 7.25022C7.75851 7.1332 7.58274 7.07206 7.40297 7.079C7.2232 7.08594 7.05268 7.16047 6.92546 7.28768C6.79825 7.41489 6.72373 7.58542 6.71679 7.76519C6.70984 7.94495 6.77099 8.12072 6.88801 8.25737L8.1523 9.53594L6.87372 10.8217C6.74069 10.9555 6.66602 11.1365 6.66602 11.3252C6.66602 11.5139 6.74069 11.695 6.87372 11.8288C7.00755 11.9618 7.18859 12.0365 7.3773 12.0365C7.566 12.0365 7.74704 11.9618 7.88087 11.8288L9.18087 10.5645L10.4594 11.8431C10.5933 11.9761 10.7743 12.0508 10.963 12.0508C11.1517 12.0508 11.3328 11.9761 11.4666 11.8431C11.5996 11.7092 11.6743 11.5282 11.6743 11.3395C11.6743 11.1508 11.5996 10.9698 11.4666 10.8359L10.188 9.53594Z" fill="#FD7166"/>
</g>
<defs>
<clipPath id="clip0_2058_7114">
<rect width="12.8571" height="12.8571" fill="white" transform="translate(0.238281 0.571411)"/>
</clipPath>
</defs>
</svg>
