<svg width="14" height="14" viewBox="0 0 14 14" fill="none" xmlns="http://www.w3.org/2000/svg">
<path d="M4.65416 8.07225H5.72559C5.86767 8.07225 6.00393 8.01581 6.10439 7.91534C6.20486 7.81488 6.2613 7.67861 6.2613 7.53653C6.2613 7.39445 6.20486 7.25819 6.10439 7.15773C6.00393 7.05726 5.86767 7.00082 5.72559 7.00082H4.65416C4.51208 7.00082 4.37582 7.05726 4.27535 7.15773C4.17488 7.25819 4.11844 7.39445 4.11844 7.53653C4.11844 7.67861 4.17488 7.81488 4.27535 7.91534C4.37582 8.01581 4.51208 8.07225 4.65416 8.07225ZM7.86844 9.14368H4.65416C4.51208 9.14368 4.37582 9.20012 4.27535 9.30058C4.17488 9.40105 4.11844 9.53731 4.11844 9.67939C4.11844 9.82147 4.17488 9.95773 4.27535 10.0582C4.37582 10.1587 4.51208 10.2151 4.65416 10.2151H7.86844C8.01052 10.2151 8.14678 10.1587 8.24725 10.0582C8.34772 9.95773 8.40416 9.82147 8.40416 9.67939C8.40416 9.53731 8.34772 9.40105 8.24725 9.30058C8.14678 9.20012 8.01052 9.14368 7.86844 9.14368ZM11.0827 1.64368H3.58273C3.15649 1.64368 2.7477 1.813 2.44631 2.1144C2.14491 2.4158 1.97559 2.82458 1.97559 3.25082V10.7508C1.97559 11.1771 2.14491 11.5858 2.44631 11.8872C2.7477 12.1886 3.15649 12.358 3.58273 12.358H11.0827C11.509 12.358 11.9178 12.1886 12.2192 11.8872C12.5205 11.5858 12.6899 11.1771 12.6899 10.7508V3.25082C12.6899 2.82458 12.5205 2.4158 12.2192 2.1144C11.9178 1.813 11.509 1.64368 11.0827 1.64368ZM8.40416 2.71511V4.47761L7.59523 4.02761C7.51379 3.98059 7.42141 3.95583 7.32737 3.95583C7.23333 3.95583 7.14095 3.98059 7.05951 4.02761L6.2613 4.47761V2.71511H8.40416ZM11.6184 10.7508C11.6184 10.8929 11.562 11.0292 11.4615 11.1296C11.3611 11.2301 11.2248 11.2865 11.0827 11.2865H3.58273C3.44065 11.2865 3.30439 11.2301 3.20392 11.1296C3.10346 11.0292 3.04701 10.8929 3.04701 10.7508V3.25082C3.04701 3.10874 3.10346 2.97248 3.20392 2.87201C3.30439 2.77155 3.44065 2.71511 3.58273 2.71511H5.18987V5.39368C5.19044 5.48717 5.21546 5.57888 5.26245 5.6597C5.30944 5.74053 5.37676 5.80765 5.45773 5.85439C5.53917 5.90141 5.63155 5.92616 5.72559 5.92616C5.81962 5.92616 5.912 5.90141 5.99344 5.85439L7.33273 5.10975L8.67737 5.85975C8.75744 5.90512 8.84784 5.92911 8.93987 5.92939C9.08195 5.92939 9.21821 5.87295 9.31868 5.77248C9.41914 5.67202 9.47559 5.53576 9.47559 5.39368V2.71511H11.0827C11.2248 2.71511 11.3611 2.77155 11.4615 2.87201C11.562 2.97248 11.6184 3.10874 11.6184 3.25082V10.7508Z" fill="#00B14F"/>
</svg>
