<svg width="24" height="24" viewBox="0 0 24 24" fill="none" xmlns="http://www.w3.org/2000/svg">
<path d="M16.4619 4.41666V3.41666H15.4619V4.41666H16.4619ZM7.53818 4.41666H8.53818V3.41666H7.53818V4.41666ZM4.52727 3.38344C4.52727 4.53593 5.4848 5.41666 6.59478 5.41666V3.41666C6.5666 3.41666 6.54733 3.40635 6.53576 3.39516C6.53004 3.38962 6.52788 3.3854 6.52737 3.38425C6.52722 3.3839 6.52727 3.38438 6.52727 3.38344H4.52727ZM4.52727 2.03322V3.38344H6.52727V2.03322H4.52727ZM6.59478 0C5.4848 0 4.52727 0.880728 4.52727 2.03322H6.52727C6.52727 2.03228 6.52722 2.03277 6.52737 2.03241C6.52788 2.03127 6.53004 2.02704 6.53576 2.02151C6.54733 2.01031 6.5666 2 6.59478 2V0ZM17.4052 0H6.59478V2H17.4052V0ZM19.4728 2.03322C19.4728 0.880651 18.5152 0 17.4052 0V2C17.4335 2 17.4528 2.01035 17.4644 2.02153C17.4701 2.02707 17.4722 2.03129 17.4727 2.03242C17.4729 2.03277 17.4728 2.03228 17.4728 2.03322H19.4728ZM19.4728 3.38344V2.03322H17.4728V3.38344H19.4728ZM17.4052 5.41666C18.5152 5.41666 19.4728 4.53601 19.4728 3.38344H17.4728C17.4728 3.38438 17.4729 3.38389 17.4727 3.38424C17.4722 3.38538 17.4701 3.38959 17.4644 3.39513C17.4528 3.40631 17.4335 3.41666 17.4052 3.41666V5.41666ZM16.4619 5.41666H17.4052V3.41666H16.4619V5.41666ZM17.4619 5.27934V4.41666H15.4619V5.27934H17.4619ZM17.1171 4.91355C17.2773 4.91355 17.4619 5.0463 17.4619 5.27934H15.4619C15.4619 6.21169 16.2345 6.91355 17.1171 6.91355V4.91355ZM22 9.67229C22 7.01707 19.7796 4.91355 17.1171 4.91355V6.91355C18.7368 6.91355 20 8.18237 20 9.67229H22ZM22 12.3213V9.67229H20V12.3213H22ZM22 19.0989V12.3213H20V19.0989H22ZM17.1171 24C19.8149 24 22 21.7978 22 19.0989H20C20 20.7021 18.7015 22 17.1171 22V24ZM6.88301 24H17.1171V22H6.88301V24ZM2 19.0989C2 21.7979 4.18526 24 6.88301 24V22C5.29858 22 4 20.7021 4 19.0989H2ZM2 9.91681V19.0989H4V9.91681H2ZM6.88301 5.01561C4.18524 5.01561 2 7.21776 2 9.91681H4C4 8.31352 5.2986 7.01561 6.88301 7.01561V5.01561ZM6.53818 5.35741C6.53818 5.17223 6.68762 5.01561 6.88301 5.01561V7.01561C7.80057 7.01561 8.53818 6.26839 8.53818 5.35741H6.53818ZM6.53818 4.41666V5.35741H8.53818V4.41666H6.53818ZM6.59478 5.41666H7.53818V3.41666H6.59478V5.41666Z" fill="#C8CCDC"/>
<path fill-rule="evenodd" clip-rule="evenodd" d="M13.0178 9.86951C13.1282 9.86951 13.2178 9.95905 13.2178 10.0695L13.2178 18.0173C13.2178 18.1278 13.1282 18.2173 13.0178 18.2173H11.3308C11.2204 18.2173 11.1308 18.1278 11.1308 18.0173L11.1308 10.0695C11.1308 9.95905 11.2204 9.86951 11.3308 9.86951H13.0178Z" fill="#C8CCDC"/>
<rect x="8" y="13" width="8.34783" height="2.08696" rx="0.2" fill="#C8CCDC"/>
</svg>
